<?xml version="1.0" encoding="UTF-8"?>
<!DOCTYPE svg PUBLIC "-//W3C//DTD SVG 1.1//EN" "http://www.w3.org/Graphics/SVG/1.1/DTD/svg11.dtd">
<svg version="1.2" width="156px" height="48px" viewBox="13 135 4126 1024" preserveAspectRatio="xMidYMid" fill-rule="evenodd" stroke-width="28.222" stroke-linejoin="round" xmlns="http://www.w3.org/2000/svg" xmlns:ooo="http://xml.openoffice.org/svg/export" xmlns:xlink="http://www.w3.org/1999/xlink" xmlns:presentation="http://sun.com/xmlns/staroffice/presentation" xmlns:smil="http://www.w3.org/2001/SMIL20/" xmlns:anim="urn:oasis:names:tc:opendocument:xmlns:animation:1.0" xml:space="preserve">
 <defs class="ClipPathGroup">
  <clipPath id="presentation_clip_path" clipPathUnits="userSpaceOnUse">
   <rect x="13" y="135" width="4126" height="1024"/>
  </clipPath>
  <clipPath id="presentation_clip_path_shrink" clipPathUnits="userSpaceOnUse">
   <rect x="17" y="136" width="4118" height="1022"/>
  </clipPath>
 </defs>
 <defs class="TextShapeIndex">
  <g ooo:slide="id1" ooo:id-list="id3 id4 id5 id6 id7 id8 id9 id10 id11 id12 id13 id14 id15 id16 id17 id18 id19 id20 id21 id22 id23 id24 id25 id26 id27 id28 id29 id30 id31 id32 id33 id34 id35"/>
 </defs>
 <defs class="EmbeddedBulletChars">
  <g id="bullet-char-template-57356" transform="scale(0.00048828125,-0.00048828125)">
   <path d="M 580,1141 L 1163,571 580,0 -4,571 580,1141 Z"/>
  </g>
  <g id="bullet-char-template-57354" transform="scale(0.00048828125,-0.00048828125)">
   <path d="M 8,1128 L 1137,1128 1137,0 8,0 8,1128 Z"/>
  </g>
  <g id="bullet-char-template-10146" transform="scale(0.00048828125,-0.00048828125)">
   <path d="M 174,0 L 602,739 174,1481 1456,739 174,0 Z M 1358,739 L 309,1346 659,739 1358,739 Z"/>
  </g>
  <g id="bullet-char-template-10132" transform="scale(0.00048828125,-0.00048828125)">
   <path d="M 2015,739 L 1276,0 717,0 1260,543 174,543 174,936 1260,936 717,1481 1274,1481 2015,739 Z"/>
  </g>
  <g id="bullet-char-template-10007" transform="scale(0.00048828125,-0.00048828125)">
   <path d="M 0,-2 C -7,14 -16,27 -25,37 L 356,567 C 262,823 215,952 215,954 215,979 228,992 255,992 264,992 276,990 289,987 310,991 331,999 354,1012 L 381,999 492,748 772,1049 836,1024 860,1049 C 881,1039 901,1025 922,1006 886,937 835,863 770,784 769,783 710,716 594,584 L 774,223 C 774,196 753,168 711,139 L 727,119 C 717,90 699,76 672,76 641,76 570,178 457,381 L 164,-76 C 142,-110 111,-127 72,-127 30,-127 9,-110 8,-76 1,-67 -2,-52 -2,-32 -2,-23 -1,-13 0,-2 Z"/>
  </g>
  <g id="bullet-char-template-10004" transform="scale(0.00048828125,-0.00048828125)">
   <path d="M 285,-33 C 182,-33 111,30 74,156 52,228 41,333 41,471 41,549 55,616 82,672 116,743 169,778 240,778 293,778 328,747 346,684 L 369,508 C 377,444 397,411 428,410 L 1163,1116 C 1174,1127 1196,1133 1229,1133 1271,1133 1292,1118 1292,1087 L 1292,965 C 1292,929 1282,901 1262,881 L 442,47 C 390,-6 338,-33 285,-33 Z"/>
  </g>
  <g id="bullet-char-template-9679" transform="scale(0.00048828125,-0.00048828125)">
   <path d="M 813,0 C 632,0 489,54 383,161 276,268 223,411 223,592 223,773 276,916 383,1023 489,1130 632,1184 813,1184 992,1184 1136,1130 1245,1023 1353,916 1407,772 1407,592 1407,412 1353,268 1245,161 1136,54 992,0 813,0 Z"/>
  </g>
  <g id="bullet-char-template-8226" transform="scale(0.00048828125,-0.00048828125)">
   <path d="M 346,457 C 273,457 209,483 155,535 101,586 74,649 74,723 74,796 101,859 155,911 209,963 273,989 346,989 419,989 480,963 531,910 582,859 608,796 608,723 608,648 583,586 532,535 482,483 420,457 346,457 Z"/>
  </g>
  <g id="bullet-char-template-8211" transform="scale(0.00048828125,-0.00048828125)">
   <path d="M -4,459 L 1135,459 1135,606 -4,606 -4,459 Z"/>
  </g>
  <g id="bullet-char-template-61548" transform="scale(0.00048828125,-0.00048828125)">
   <path d="M 173,740 C 173,903 231,1043 346,1159 462,1274 601,1332 765,1332 928,1332 1067,1274 1183,1159 1299,1043 1357,903 1357,740 1357,577 1299,437 1183,322 1067,206 928,148 765,148 601,148 462,206 346,322 231,437 173,577 173,740 Z"/>
  </g>
 </defs>
 <defs class="TextEmbeddedBitmaps"/>
 <g class="SlideGroup">
  <g>
   <g id="container-id1">
    <g id="id1" class="Slide" clip-path="url(#presentation_clip_path)">
     <g class="Page">
      <g class="Group">
       <g class="com.sun.star.drawing.ClosedBezierShape">
        <g id="id3">
         <rect class="BoundingBox" stroke="none" fill="none" x="308" y="567" width="454" height="78"/>
         <path fill="rgb(255,181,17)" stroke="none" d="M 734,568 L 337,568 C 322,568 309,581 309,596 L 309,644 761,644 761,596 C 761,581 749,568 734,568 Z"/>
        </g>
       </g>
       <g class="com.sun.star.drawing.PolyPolygonShape">
        <g id="id4">
         <rect class="BoundingBox" stroke="none" fill="none" x="308" y="810" width="454" height="77"/>
         <path fill="rgb(255,181,17)" stroke="none" d="M 309,885 L 761,885 761,810 309,810 309,885 Z"/>
        </g>
       </g>
       <g class="com.sun.star.drawing.ClosedBezierShape">
        <g id="id5">
         <rect class="BoundingBox" stroke="none" fill="none" x="329" y="931" width="413" height="113"/>
         <path fill="rgb(255,181,17)" stroke="none" d="M 535,1042 C 660,1042 741,931 741,931 L 330,931 C 330,931 411,1042 535,1042 Z"/>
        </g>
       </g>
       <g class="com.sun.star.drawing.ClosedBezierShape">
        <g id="id6">
         <rect class="BoundingBox" stroke="none" fill="none" x="488" y="1074" width="94" height="87"/>
         <path fill="rgb(0,0,0)" stroke="none" d="M 489,1074 C 489,1074 512,1159 535,1159 558,1159 581,1074 581,1074 567,1076 551,1078 535,1078 519,1078 504,1076 489,1074 Z"/>
        </g>
       </g>
       <g class="com.sun.star.drawing.PolyPolygonShape">
        <g id="id7">
         <rect class="BoundingBox" stroke="none" fill="none" x="308" y="689" width="454" height="77"/>
         <path fill="rgb(255,181,17)" stroke="none" d="M 309,764 L 761,764 761,689 309,689 309,764 Z"/>
        </g>
       </g>
       <g class="com.sun.star.drawing.ClosedBezierShape">
        <g id="id8">
         <rect class="BoundingBox" stroke="none" fill="none" x="354" y="342" width="362" height="181"/>
         <path fill="rgb(255,181,17)" stroke="none" d="M 355,522 L 402,522 C 402,449 461,389 535,389 608,389 669,449 669,522 L 715,522 C 715,423 634,343 535,343 435,343 355,423 355,522 Z"/>
        </g>
       </g>
       <g class="com.sun.star.drawing.ClosedBezierShape">
        <g id="id9">
         <rect class="BoundingBox" stroke="none" fill="none" x="292" y="134" width="211" height="179"/>
         <path fill="rgb(0,0,0)" stroke="none" d="M 415,265 C 430,281 444,297 455,312 470,306 486,302 502,299 484,271 461,246 444,228 435,219 355,135 316,135 304,135 293,146 293,158 293,171 303,181 315,181 326,185 368,214 415,265 Z"/>
        </g>
       </g>
       <g class="com.sun.star.drawing.ClosedBezierShape">
        <g id="id10">
         <rect class="BoundingBox" stroke="none" fill="none" x="568" y="134" width="211" height="179"/>
         <path fill="rgb(0,0,0)" stroke="none" d="M 755,135 C 716,135 636,219 627,228 610,246 587,271 569,299 585,302 601,306 616,312 627,297 641,281 656,265 703,214 745,185 756,181 768,181 778,171 778,158 778,146 767,135 755,135 Z"/>
        </g>
       </g>
       <g class="com.sun.star.drawing.ClosedBezierShape">
        <g id="id11">
         <rect class="BoundingBox" stroke="none" fill="none" x="13" y="604" width="251" height="417"/>
         <path fill="rgb(0,0,0)" stroke="none" d="M 56,978 C 171,1093 263,932 263,932 L 263,605 C 263,605 -110,812 56,978 Z"/>
        </g>
       </g>
       <g class="com.sun.star.drawing.ClosedBezierShape">
        <g id="id12">
         <rect class="BoundingBox" stroke="none" fill="none" x="806" y="604" width="253" height="417"/>
         <path fill="rgb(0,0,0)" stroke="none" d="M 807,605 L 807,932 C 807,932 900,1093 1015,978 1181,812 807,605 807,605 Z"/>
        </g>
       </g>
      </g>
      <g class="Group">
       <g class="com.sun.star.drawing.PolyPolygonShape">
        <g id="id13">
         <rect class="BoundingBox" stroke="none" fill="none" x="1316" y="280" width="377" height="380"/>
         <path fill="rgb(0,0,0)" stroke="none" d="M 1437,658 L 1317,658 1441,470 1317,281 1437,281 1504,393 1571,281 1692,281 1568,470 1692,658 1571,658 1504,547 1437,658 Z"/>
        </g>
       </g>
       <g class="com.sun.star.drawing.ClosedBezierShape">
        <g id="id14">
         <rect class="BoundingBox" stroke="none" fill="none" x="1699" y="272" width="286" height="396"/>
         <path fill="rgb(0,0,0)" stroke="none" d="M 1984,648 C 1962,659 1926,666 1900,666 1780,666 1700,581 1700,470 1700,358 1780,273 1900,273 1925,273 1962,280 1984,291 L 1984,400 C 1964,386 1935,374 1900,374 1845,374 1805,418 1805,470 1805,522 1845,566 1900,566 1934,566 1965,554 1984,540 L 1984,648 Z"/>
        </g>
       </g>
       <g class="com.sun.star.drawing.ClosedBezierShape">
        <g id="id15">
         <rect class="BoundingBox" stroke="none" fill="none" x="2030" y="272" width="395" height="396"/>
         <path fill="rgb(0,0,0)" stroke="none" d="M 2226,566 C 2280,566 2317,522 2317,470 2317,418 2280,374 2226,374 2174,374 2134,418 2134,470 2134,522 2174,566 2226,566 Z M 2226,273 C 2337,273 2423,359 2423,470 2423,581 2337,666 2226,666 2115,666 2031,581 2031,470 2031,359 2115,273 2226,273 Z"/>
        </g>
       </g>
       <g class="com.sun.star.drawing.ClosedBezierShape">
        <g id="id16">
         <rect class="BoundingBox" stroke="none" fill="none" x="2466" y="272" width="395" height="396"/>
         <path fill="rgb(0,0,0)" stroke="none" d="M 2662,566 C 2715,566 2753,522 2753,470 2753,418 2715,374 2662,374 2610,374 2570,418 2570,470 2570,522 2610,566 2662,566 Z M 2662,273 C 2773,273 2859,359 2859,470 2859,581 2773,666 2662,666 2551,666 2466,581 2466,470 2466,359 2551,273 2662,273 Z"/>
        </g>
       </g>
       <g class="com.sun.star.drawing.ClosedBezierShape">
        <g id="id17">
         <rect class="BoundingBox" stroke="none" fill="none" x="2924" y="134" width="401" height="534"/>
         <path fill="rgb(255,181,17)" stroke="none" d="M 3122,566 C 3176,566 3215,522 3215,470 3215,418 3176,375 3122,375 3067,375 3027,418 3027,470 3027,522 3067,566 3122,566 Z M 3027,658 L 2924,658 2924,135 3027,135 3027,330 C 3053,295 3094,273 3143,273 3249,273 3323,359 3323,470 3323,581 3249,666 3144,666 3094,666 3053,645 3027,610 L 3027,658 Z"/>
        </g>
       </g>
       <g class="com.sun.star.drawing.ClosedBezierShape">
        <g id="id18">
         <rect class="BoundingBox" stroke="none" fill="none" x="3366" y="272" width="368" height="396"/>
         <path fill="rgb(255,181,17)" stroke="none" d="M 3470,424 L 3633,424 C 3631,386 3599,359 3555,359 3509,359 3475,389 3470,424 Z M 3470,503 C 3479,546 3517,574 3570,574 3617,574 3664,560 3698,538 L 3698,638 C 3665,654 3616,666 3561,666 3449,666 3366,588 3366,470 3366,359 3446,273 3555,273 3665,273 3732,355 3732,453 3732,469 3729,490 3726,503 L 3470,503 Z"/>
        </g>
       </g>
       <g class="com.sun.star.drawing.ClosedBezierShape">
        <g id="id19">
         <rect class="BoundingBox" stroke="none" fill="none" x="3773" y="272" width="368" height="396"/>
         <path fill="rgb(255,181,17)" stroke="none" d="M 3876,424 L 4039,424 C 4038,386 4005,359 3961,359 3915,359 3881,389 3876,424 Z M 3876,503 C 3885,546 3923,574 3976,574 4023,574 4070,560 4105,538 L 4105,638 C 4071,654 4023,666 3968,666 3855,666 3773,588 3773,470 3773,359 3852,273 3962,273 4071,273 4139,355 4139,453 4139,469 4136,490 4133,503 L 3876,503 Z"/>
        </g>
       </g>
      </g>
      <g class="Group">
       <g class="com.sun.star.drawing.PolyPolygonShape">
        <g id="id20">
         <rect class="BoundingBox" stroke="none" fill="none" x="1325" y="817" width="172" height="237"/>
         <path fill="rgb(0,0,0)" stroke="none" d="M 1353,821 L 1353,855 1355,851 1358,847 1361,843 1364,839 1367,836 1370,833 1374,830 1378,827 1382,825 1386,823 1391,821 1395,820 1400,819 1405,818 1410,818 1415,817 1423,818 1432,819 1436,820 1439,821 1443,822 1447,824 1450,825 1454,827 1457,829 1460,831 1464,834 1467,836 1473,842 1478,848 1483,855 1487,862 1490,869 1492,877 1494,885 1495,893 1496,902 1495,911 1494,920 1492,928 1490,936 1487,943 1485,947 1483,950 1478,957 1473,963 1467,969 1464,971 1460,974 1457,976 1454,978 1450,980 1447,981 1443,983 1439,984 1435,985 1431,986 1423,987 1415,987 1410,987 1405,987 1400,986 1395,985 1391,984 1386,982 1382,980 1378,978 1374,975 1370,973 1367,970 1364,966 1361,963 1358,959 1355,956 1353,951 1353,1053 1325,1053 1325,821 1353,821 Z M 1353,902 L 1353,908 1354,914 1355,919 1356,922 1357,925 1358,927 1359,930 1361,932 1362,934 1365,939 1369,943 1374,947 1378,950 1380,952 1383,953 1385,955 1388,956 1390,957 1393,958 1396,958 1398,959 1404,960 1410,960 1416,960 1421,959 1424,958 1427,958 1429,957 1432,956 1435,955 1437,953 1439,952 1442,950 1444,949 1446,947 1450,943 1454,939 1457,934 1460,930 1461,927 1462,925 1464,919 1465,914 1466,908 1466,902 1466,896 1465,891 1464,885 1463,883 1462,880 1461,878 1460,875 1457,871 1454,866 1450,862 1446,858 1441,854 1439,853 1437,852 1434,850 1432,849 1429,848 1427,847 1424,847 1421,846 1416,845 1410,845 1404,845 1398,846 1396,847 1393,847 1390,848 1388,849 1385,850 1383,852 1380,853 1378,854 1374,858 1369,862 1365,866 1362,871 1359,875 1358,878 1357,880 1356,883 1355,885 1354,891 1353,896 1353,902 Z"/>
        </g>
       </g>
       <g class="com.sun.star.drawing.PolyPolygonShape">
        <g id="id21">
         <rect class="BoundingBox" stroke="none" fill="none" x="1532" y="817" width="85" height="168"/>
         <path fill="rgb(0,0,0)" stroke="none" d="M 1560,821 L 1560,843 1562,840 1563,837 1565,834 1567,832 1570,830 1572,827 1574,826 1577,824 1580,822 1583,821 1585,820 1589,819 1592,818 1595,818 1599,818 1602,818 1604,818 1605,818 1609,818 1612,818 1616,819 1616,849 1614,848 1611,847 1609,847 1606,846 1604,846 1601,845 1599,845 1596,845 1592,845 1588,846 1586,846 1584,847 1583,847 1581,848 1579,849 1578,849 1576,850 1575,851 1574,852 1572,854 1571,855 1570,856 1568,859 1566,862 1564,866 1563,869 1562,873 1561,878 1560,882 1560,887 1560,984 1532,984 1532,821 1560,821 Z"/>
        </g>
       </g>
       <g class="com.sun.star.drawing.PolyPolygonShape">
        <g id="id22">
         <rect class="BoundingBox" stroke="none" fill="none" x="1638" y="751" width="39" height="234"/>
         <path fill="rgb(0,0,0)" stroke="none" d="M 1671,821 L 1671,984 1643,984 1643,821 1671,821 Z M 1644,783 L 1643,781 1642,780 1641,779 1641,778 1640,777 1640,777 1640,776 1639,775 1639,773 1639,771 1639,770 1639,768 1639,766 1639,764 1640,762 1640,762 1641,761 1642,759 1643,758 1644,757 1645,755 1646,755 1647,754 1647,754 1648,753 1649,753 1650,753 1651,752 1651,752 1652,752 1653,752 1655,751 1657,751 1659,751 1661,751 1663,752 1664,752 1665,753 1666,753 1667,754 1667,754 1669,755 1670,756 1672,758 1672,758 1673,759 1673,760 1674,761 1674,761 1674,762 1675,763 1675,764 1675,766 1676,768 1676,770 1676,771 1675,773 1675,775 1675,776 1674,777 1674,777 1674,778 1673,779 1673,780 1672,780 1672,781 1670,783 1670,783 1669,784 1668,784 1668,785 1667,785 1666,786 1665,786 1664,786 1664,787 1663,787 1661,787 1659,788 1657,788 1655,788 1653,787 1651,787 1651,787 1650,786 1649,786 1648,786 1647,785 1647,785 1645,784 1644,783 Z"/>
        </g>
       </g>
       <g class="com.sun.star.drawing.PolyPolygonShape">
        <g id="id23">
         <rect class="BoundingBox" stroke="none" fill="none" x="1695" y="820" width="162" height="165"/>
         <path fill="rgb(0,0,0)" stroke="none" d="M 1696,821 L 1725,821 1775,950 1826,821 1855,821 1790,984 1761,984 1696,821 Z"/>
        </g>
       </g>
       <g class="com.sun.star.drawing.PolyPolygonShape">
        <g id="id24">
         <rect class="BoundingBox" stroke="none" fill="none" x="1867" y="817" width="129" height="172"/>
         <path fill="rgb(0,0,0)" stroke="none" d="M 1885,856 L 1885,829 1891,826 1896,824 1902,822 1908,820 1914,819 1920,818 1926,818 1932,818 1939,818 1946,818 1952,820 1958,821 1963,824 1966,825 1969,826 1971,828 1973,829 1976,831 1978,833 1980,835 1982,837 1984,839 1985,842 1987,844 1988,847 1989,850 1990,853 1991,856 1992,859 1994,865 1994,873 1995,880 1995,984 1967,984 1967,966 1965,969 1963,971 1961,973 1959,975 1956,977 1954,979 1952,981 1949,982 1946,983 1943,984 1940,985 1937,986 1934,987 1931,987 1924,987 1918,987 1912,986 1906,985 1901,983 1898,982 1896,981 1893,980 1891,979 1889,977 1886,975 1884,974 1882,972 1879,968 1876,964 1874,961 1873,959 1872,957 1871,954 1870,952 1869,949 1868,944 1867,939 1867,933 1867,927 1868,922 1869,920 1869,917 1870,915 1871,912 1872,910 1873,907 1875,905 1876,903 1878,901 1879,899 1883,895 1887,891 1892,888 1894,887 1897,886 1902,883 1907,882 1912,880 1918,880 1924,879 1927,880 1931,880 1934,880 1937,881 1940,882 1943,883 1946,884 1949,885 1952,886 1954,888 1957,890 1959,891 1961,893 1963,895 1965,897 1967,899 1967,880 1967,875 1966,871 1965,867 1965,865 1964,864 1963,862 1963,860 1962,859 1961,857 1960,856 1959,855 1957,853 1956,852 1953,850 1950,848 1947,847 1944,845 1940,844 1937,844 1933,843 1929,843 1923,843 1918,844 1912,845 1907,846 1901,848 1896,851 1890,853 1885,856 Z M 1895,933 L 1895,936 1895,938 1896,940 1896,941 1896,943 1897,944 1897,946 1898,947 1899,949 1900,950 1901,951 1903,954 1905,956 1908,959 1911,961 1914,962 1917,964 1920,965 1924,965 1927,966 1931,966 1934,966 1938,965 1941,965 1944,964 1947,962 1950,961 1953,959 1956,956 1958,954 1961,951 1962,950 1962,949 1963,947 1964,946 1965,944 1965,943 1966,941 1966,940 1966,938 1966,936 1967,933 1967,931 1966,930 1966,928 1966,927 1965,925 1965,924 1964,922 1964,921 1963,919 1962,918 1961,917 1961,915 1958,913 1956,910 1953,908 1950,906 1947,905 1944,903 1941,902 1938,902 1934,901 1931,901 1927,901 1924,902 1920,902 1917,903 1914,905 1911,906 1908,908 1905,910 1903,913 1901,915 1900,917 1899,918 1898,919 1897,921 1897,922 1896,924 1896,925 1896,927 1895,928 1895,930 1895,931 1895,933 Z"/>
        </g>
       </g>
       <g class="com.sun.star.drawing.PolyPolygonShape">
        <g id="id25">
         <rect class="BoundingBox" stroke="none" fill="none" x="2029" y="817" width="130" height="172"/>
         <path fill="rgb(0,0,0)" stroke="none" d="M 2157,946 L 2157,976 2153,979 2148,981 2143,983 2138,984 2132,986 2127,987 2121,987 2115,987 2106,987 2098,986 2089,984 2085,983 2081,981 2078,980 2074,978 2070,976 2067,974 2064,971 2060,969 2054,963 2048,957 2046,954 2043,950 2041,947 2039,943 2037,939 2036,936 2034,932 2033,928 2031,920 2030,911 2030,902 2030,893 2031,885 2033,877 2034,873 2036,869 2037,865 2039,862 2041,858 2043,855 2048,848 2054,842 2060,836 2064,834 2067,831 2070,829 2074,827 2078,825 2081,824 2085,822 2089,821 2098,819 2106,818 2115,818 2121,818 2127,818 2132,819 2137,820 2143,822 2148,824 2153,826 2157,829 2157,859 2153,856 2148,853 2143,851 2138,849 2133,847 2127,846 2121,845 2115,845 2109,845 2104,846 2098,847 2096,848 2093,849 2090,850 2088,851 2086,853 2083,854 2079,858 2075,862 2071,866 2067,870 2066,873 2065,875 2063,878 2062,880 2061,883 2061,885 2059,891 2058,896 2058,902 2058,908 2059,914 2061,919 2061,922 2062,925 2063,927 2065,930 2067,934 2071,939 2075,943 2079,947 2083,951 2086,952 2088,954 2090,955 2093,956 2096,957 2098,958 2101,959 2104,959 2109,960 2115,960 2121,960 2127,959 2133,958 2138,957 2143,955 2148,952 2153,949 2157,946 Z"/>
        </g>
       </g>
       <g class="com.sun.star.drawing.PolyPolygonShape">
        <g id="id26">
         <rect class="BoundingBox" stroke="none" fill="none" x="2175" y="820" width="160" height="234"/>
         <path fill="rgb(0,0,0)" stroke="none" d="M 2201,1053 L 2238,972 2175,821 2207,821 2253,936 2301,821 2333,821 2234,1053 2201,1053 Z"/>
        </g>
       </g>
       <g class="com.sun.star.drawing.PolyPolygonShape">
        <g id="id27">
         <rect class="BoundingBox" stroke="none" fill="none" x="2414" y="752" width="208" height="237"/>
         <path fill="rgb(0,0,0)" stroke="none" d="M 2415,921 L 2415,917 2415,913 2415,910 2416,906 2417,903 2417,899 2418,896 2420,893 2421,890 2422,887 2424,884 2426,882 2427,879 2429,877 2431,874 2434,872 2438,868 2443,864 2447,861 2452,858 2457,855 2462,852 2468,849 2474,846 2473,844 2468,838 2464,832 2461,827 2458,822 2456,816 2455,811 2454,809 2454,807 2454,804 2454,802 2454,797 2454,795 2455,792 2455,790 2456,787 2456,785 2457,783 2458,781 2460,779 2461,777 2462,775 2464,773 2465,771 2469,767 2473,764 2477,761 2481,758 2486,756 2491,755 2496,754 2502,753 2507,753 2513,753 2518,754 2524,755 2526,756 2528,756 2531,757 2533,759 2535,760 2537,761 2539,762 2541,764 2543,766 2545,767 2548,771 2551,775 2553,779 2555,783 2557,788 2558,793 2558,797 2558,802 2558,807 2558,812 2557,816 2556,820 2555,822 2554,824 2553,825 2552,827 2551,829 2550,830 2548,832 2547,834 2544,837 2541,839 2537,842 2533,845 2529,848 2524,851 2519,853 2514,856 2559,910 2614,848 2614,887 2576,930 2621,984 2586,984 2559,951 2550,959 2541,967 2532,973 2523,978 2518,980 2514,982 2509,984 2504,985 2500,986 2495,987 2491,987 2486,987 2478,987 2470,986 2463,984 2459,983 2456,982 2453,981 2449,979 2446,978 2444,976 2441,974 2438,972 2436,970 2433,967 2429,962 2425,957 2422,951 2419,945 2417,939 2416,933 2415,927 2415,921 Z M 2486,961 L 2489,960 2493,960 2496,959 2499,959 2503,958 2506,956 2510,955 2513,953 2520,949 2527,943 2534,937 2542,930 2490,866 2480,871 2475,874 2471,877 2466,880 2463,882 2459,885 2456,888 2454,890 2453,891 2452,893 2450,895 2449,896 2448,898 2447,900 2447,902 2446,904 2445,906 2444,910 2444,915 2444,919 2444,923 2444,927 2445,931 2446,934 2448,938 2450,941 2452,945 2455,948 2457,949 2458,951 2460,952 2461,953 2463,955 2465,956 2467,957 2469,957 2471,958 2473,959 2475,959 2477,960 2481,960 2486,961 Z M 2496,834 L 2498,836 2506,832 2512,829 2515,827 2518,825 2521,823 2523,821 2525,820 2526,819 2527,818 2527,817 2528,815 2529,814 2529,813 2530,812 2530,811 2530,810 2531,809 2531,807 2531,806 2531,805 2531,803 2531,801 2531,799 2530,796 2530,794 2529,792 2528,790 2526,788 2525,786 2524,785 2523,784 2522,783 2521,783 2521,782 2520,781 2518,781 2517,780 2516,780 2515,779 2514,779 2513,779 2510,778 2508,778 2505,778 2502,779 2499,779 2497,780 2495,781 2494,781 2493,782 2492,782 2491,783 2490,784 2489,784 2488,785 2487,786 2487,787 2486,788 2485,789 2484,790 2484,791 2483,792 2483,793 2482,795 2482,796 2482,798 2481,801 2481,803 2481,805 2481,806 2482,808 2482,809 2483,813 2485,816 2487,820 2490,824 2493,829 2496,834 Z"/>
        </g>
       </g>
       <g class="com.sun.star.drawing.PolyPolygonShape">
        <g id="id28">
         <rect class="BoundingBox" stroke="none" fill="none" x="2730" y="817" width="172" height="237"/>
         <path fill="rgb(0,0,0)" stroke="none" d="M 2758,821 L 2758,855 2760,851 2763,847 2766,843 2769,839 2772,836 2775,833 2779,830 2783,827 2787,825 2791,823 2796,821 2800,820 2805,819 2810,818 2815,818 2820,817 2828,818 2837,819 2841,820 2844,821 2848,822 2852,824 2855,825 2859,827 2862,829 2865,831 2869,834 2872,836 2878,842 2883,848 2888,855 2892,862 2895,869 2897,877 2899,885 2900,893 2901,902 2900,911 2899,920 2897,928 2895,936 2892,943 2890,947 2888,950 2883,957 2878,963 2872,969 2869,971 2865,974 2862,976 2859,978 2855,980 2852,981 2848,983 2844,984 2840,985 2836,986 2828,987 2820,987 2815,987 2810,987 2805,986 2800,985 2796,984 2791,982 2787,980 2783,978 2779,975 2775,973 2772,970 2769,966 2766,963 2763,959 2760,956 2758,951 2758,1053 2730,1053 2730,821 2758,821 Z M 2758,902 L 2758,908 2759,914 2760,919 2761,922 2762,925 2763,927 2764,930 2766,932 2767,934 2770,939 2774,943 2779,947 2783,950 2785,952 2788,953 2790,955 2793,956 2795,957 2798,958 2801,958 2803,959 2809,960 2815,960 2821,960 2826,959 2829,958 2832,958 2834,957 2837,956 2840,955 2842,953 2844,952 2847,950 2849,949 2851,947 2855,943 2859,939 2862,934 2865,930 2866,927 2867,925 2869,919 2870,914 2871,908 2871,902 2871,896 2870,891 2869,885 2868,883 2867,880 2866,878 2865,875 2862,871 2859,866 2855,862 2851,858 2846,854 2844,853 2842,852 2839,850 2837,849 2834,848 2832,847 2829,847 2826,846 2821,845 2815,845 2809,845 2803,846 2801,847 2798,847 2795,848 2793,849 2790,850 2788,852 2785,853 2783,854 2779,858 2774,862 2770,866 2767,871 2764,875 2763,878 2762,880 2761,883 2760,885 2759,891 2758,896 2758,902 Z"/>
        </g>
       </g>
       <g class="com.sun.star.drawing.PolyPolygonShape">
        <g id="id29">
         <rect class="BoundingBox" stroke="none" fill="none" x="2925" y="817" width="129" height="172"/>
         <path fill="rgb(0,0,0)" stroke="none" d="M 2943,856 L 2943,829 2949,826 2954,824 2960,822 2966,820 2972,819 2978,818 2984,818 2990,818 2997,818 3004,818 3010,820 3016,821 3021,824 3024,825 3027,826 3029,828 3031,829 3034,831 3036,833 3038,835 3040,837 3042,839 3043,842 3045,844 3046,847 3047,850 3048,853 3049,856 3050,859 3052,865 3052,873 3053,880 3053,984 3025,984 3025,966 3023,969 3021,971 3019,973 3017,975 3014,977 3012,979 3010,981 3007,982 3004,983 3001,984 2998,985 2995,986 2992,987 2989,987 2982,987 2976,987 2970,986 2964,985 2959,983 2956,982 2954,981 2951,980 2949,979 2947,977 2944,975 2942,974 2940,972 2937,968 2934,964 2932,961 2931,959 2930,957 2929,954 2928,952 2927,949 2926,944 2925,939 2925,933 2925,927 2926,922 2927,920 2927,917 2928,915 2929,912 2930,910 2931,907 2933,905 2934,903 2936,901 2937,899 2941,895 2945,891 2950,888 2952,887 2955,886 2960,883 2965,882 2970,880 2976,880 2982,879 2985,880 2989,880 2992,880 2995,881 2998,882 3001,883 3004,884 3007,885 3010,886 3012,888 3015,890 3017,891 3019,893 3021,895 3023,897 3025,899 3025,880 3025,875 3024,871 3023,867 3023,865 3022,864 3021,862 3021,860 3020,859 3019,857 3018,856 3017,855 3015,853 3014,852 3011,850 3008,848 3005,847 3002,845 2998,844 2995,844 2991,843 2987,843 2981,843 2976,844 2970,845 2965,846 2959,848 2954,851 2948,853 2943,856 Z M 2953,933 L 2953,936 2953,938 2954,940 2954,941 2954,943 2955,944 2955,946 2956,947 2957,949 2958,950 2959,951 2961,954 2963,956 2966,959 2969,961 2972,962 2975,964 2978,965 2982,965 2985,966 2989,966 2992,966 2996,965 2999,965 3002,964 3005,962 3008,961 3011,959 3014,956 3016,954 3019,951 3020,950 3020,949 3021,947 3022,946 3023,944 3023,943 3024,941 3024,940 3024,938 3024,936 3025,933 3025,931 3024,930 3024,928 3024,927 3023,925 3023,924 3022,922 3022,921 3021,919 3020,918 3019,917 3019,915 3016,913 3014,910 3011,908 3008,906 3005,905 3002,903 2999,902 2996,902 2992,901 2989,901 2985,901 2982,902 2978,902 2975,903 2972,905 2969,906 2966,908 2963,910 2961,913 2959,915 2958,917 2957,918 2956,919 2955,921 2955,922 2954,924 2954,925 2954,927 2953,928 2953,930 2953,931 2953,933 Z"/>
        </g>
       </g>
       <g class="com.sun.star.drawing.PolyPolygonShape">
        <g id="id30">
         <rect class="BoundingBox" stroke="none" fill="none" x="3077" y="820" width="160" height="234"/>
         <path fill="rgb(0,0,0)" stroke="none" d="M 3103,1053 L 3140,972 3077,821 3109,821 3155,936 3203,821 3235,821 3136,1053 3103,1053 Z"/>
        </g>
       </g>
       <g class="com.sun.star.drawing.PolyPolygonShape">
        <g id="id31">
         <rect class="BoundingBox" stroke="none" fill="none" x="3260" y="817" width="234" height="168"/>
         <path fill="rgb(0,0,0)" stroke="none" d="M 3288,821 L 3288,843 3290,840 3292,837 3294,835 3296,832 3299,830 3301,828 3304,826 3306,824 3309,822 3312,821 3315,820 3319,819 3322,818 3326,818 3329,818 3333,818 3338,818 3342,818 3346,819 3350,820 3354,821 3358,822 3362,824 3365,826 3369,829 3372,831 3375,834 3377,837 3380,840 3382,844 3384,847 3386,851 3387,848 3389,844 3391,840 3393,837 3396,834 3398,831 3401,829 3404,827 3408,824 3411,823 3415,821 3419,820 3423,819 3427,818 3431,818 3436,818 3442,818 3448,819 3453,820 3456,821 3458,822 3461,823 3463,824 3466,825 3468,827 3470,829 3472,830 3477,834 3479,836 3480,839 3482,841 3484,843 3485,846 3487,848 3488,851 3489,854 3491,859 3492,865 3493,872 3493,878 3493,984 3465,984 3465,885 3465,881 3465,876 3464,872 3463,868 3462,866 3461,865 3460,863 3459,861 3458,860 3457,858 3456,857 3455,856 3454,854 3452,853 3451,852 3449,851 3448,850 3446,849 3445,848 3443,848 3441,847 3440,846 3436,846 3432,845 3428,845 3424,845 3420,846 3416,846 3415,847 3413,848 3411,848 3410,849 3408,850 3406,851 3405,852 3404,853 3402,854 3401,856 3400,857 3398,859 3397,860 3396,862 3395,863 3394,865 3394,867 3393,868 3392,872 3391,876 3391,881 3390,885 3390,984 3363,984 3363,885 3362,881 3362,876 3361,872 3360,868 3359,866 3359,865 3358,863 3357,861 3356,860 3355,858 3354,857 3352,856 3351,854 3350,853 3348,852 3347,851 3345,850 3344,849 3342,848 3341,848 3339,847 3337,846 3334,846 3330,845 3326,845 3322,845 3318,846 3314,846 3311,847 3309,848 3307,849 3306,850 3304,851 3303,851 3301,853 3300,854 3299,855 3298,856 3296,857 3295,859 3294,860 3293,862 3292,863 3292,865 3291,867 3290,870 3289,874 3288,878 3288,883 3288,984 3260,984 3260,821 3288,821 Z"/>
        </g>
       </g>
       <g class="com.sun.star.drawing.PolyPolygonShape">
        <g id="id32">
         <rect class="BoundingBox" stroke="none" fill="none" x="3524" y="817" width="162" height="172"/>
         <path fill="rgb(0,0,0)" stroke="none" d="M 3684,913 L 3553,913 3554,918 3555,923 3557,928 3559,932 3561,937 3564,941 3567,945 3571,948 3575,951 3579,954 3584,957 3589,958 3594,960 3599,961 3604,962 3610,962 3618,962 3626,961 3633,959 3641,957 3648,954 3655,950 3662,946 3668,941 3668,970 3662,974 3655,978 3648,981 3640,983 3632,985 3624,986 3616,987 3608,987 3599,987 3591,986 3583,984 3579,983 3575,981 3572,980 3568,978 3565,976 3561,974 3558,971 3555,969 3549,963 3543,957 3540,954 3538,950 3536,947 3534,943 3532,940 3531,936 3529,932 3528,928 3526,920 3525,911 3525,902 3525,893 3526,885 3528,877 3531,869 3534,862 3538,855 3543,848 3548,842 3554,836 3557,834 3560,831 3564,829 3567,827 3571,825 3574,824 3578,822 3582,821 3585,820 3589,819 3598,818 3606,818 3615,818 3623,819 3626,820 3630,821 3634,822 3638,823 3641,825 3644,827 3648,828 3651,831 3654,833 3657,835 3663,841 3668,847 3672,853 3676,859 3678,863 3679,866 3682,874 3683,881 3685,889 3685,898 3685,902 3685,906 3684,909 3684,913 Z M 3643,855 L 3639,852 3635,849 3631,847 3626,845 3621,844 3617,842 3611,842 3606,842 3601,842 3596,843 3591,844 3586,845 3582,847 3577,850 3573,852 3569,856 3566,859 3563,863 3560,867 3558,871 3556,876 3555,881 3553,885 3553,891 3658,891 3657,885 3657,880 3656,878 3655,875 3655,873 3654,871 3653,869 3652,867 3650,864 3649,862 3648,861 3646,859 3644,857 3643,855 Z"/>
        </g>
       </g>
       <g class="com.sun.star.drawing.PolyPolygonShape">
        <g id="id33">
         <rect class="BoundingBox" stroke="none" fill="none" x="3717" y="817" width="140" height="168"/>
         <path fill="rgb(0,0,0)" stroke="none" d="M 3745,821 L 3745,847 3747,843 3749,840 3751,837 3754,834 3756,831 3759,829 3762,827 3765,825 3768,823 3771,822 3775,820 3778,819 3782,819 3786,818 3790,818 3794,818 3801,818 3807,819 3810,819 3813,820 3816,821 3819,822 3822,823 3824,825 3827,826 3829,828 3832,829 3834,831 3836,833 3838,836 3842,840 3844,843 3846,845 3847,848 3849,851 3851,856 3853,862 3854,869 3855,875 3855,882 3855,984 3827,984 3827,889 3827,884 3827,880 3826,875 3825,871 3823,867 3822,866 3821,864 3820,862 3819,860 3816,857 3815,856 3813,854 3812,853 3810,852 3808,851 3807,850 3805,849 3803,848 3801,847 3799,847 3797,846 3795,846 3791,845 3786,845 3782,845 3777,846 3773,847 3771,847 3770,848 3768,849 3766,849 3764,850 3763,851 3761,852 3760,854 3758,855 3757,856 3755,858 3754,859 3753,861 3752,863 3751,864 3750,866 3748,870 3747,874 3746,878 3745,882 3745,887 3745,984 3717,984 3717,821 3745,821 Z"/>
        </g>
       </g>
       <g class="com.sun.star.drawing.PolyPolygonShape">
        <g id="id34">
         <rect class="BoundingBox" stroke="none" fill="none" x="3881" y="773" width="93" height="213"/>
         <path fill="rgb(0,0,0)" stroke="none" d="M 3940,984 L 3912,984 3912,845 3882,845 3882,821 3914,821 3914,781 3940,774 3940,821 3972,821 3972,845 3940,845 3940,984 Z"/>
        </g>
       </g>
       <g class="com.sun.star.drawing.PolyPolygonShape">
        <g id="id35">
         <rect class="BoundingBox" stroke="none" fill="none" x="3992" y="817" width="101" height="172"/>
         <path fill="rgb(0,0,0)" stroke="none" d="M 4085,826 L 4085,855 4080,852 4076,850 4071,847 4067,846 4062,844 4057,843 4053,843 4048,842 4045,842 4042,843 4039,843 4036,844 4034,845 4033,845 4032,846 4031,846 4030,847 4029,847 4028,848 4026,850 4026,850 4025,851 4024,852 4024,853 4023,854 4023,855 4023,856 4022,857 4022,858 4022,859 4021,860 4021,861 4021,863 4021,865 4021,866 4022,868 4022,869 4023,870 4023,871 4024,873 4025,874 4025,875 4027,876 4028,877 4029,878 4030,879 4032,880 4036,882 4064,900 4071,904 4074,906 4076,908 4079,911 4081,913 4083,916 4085,918 4087,921 4088,924 4089,927 4090,929 4091,932 4091,935 4092,939 4092,942 4092,947 4091,949 4091,952 4090,954 4090,956 4089,958 4088,960 4087,963 4086,964 4085,966 4083,968 4082,970 4080,972 4079,973 4077,975 4075,976 4073,978 4071,979 4069,980 4064,983 4059,984 4054,986 4048,987 4042,987 4036,987 4030,987 4025,987 4019,986 4014,985 4009,984 4004,982 3999,980 3994,978 3994,947 3998,951 4003,954 4008,957 4013,959 4018,961 4023,962 4029,963 4035,963 4038,963 4041,963 4044,962 4047,961 4049,961 4051,960 4053,959 4054,958 4055,958 4056,957 4056,956 4057,956 4058,955 4059,954 4060,953 4060,952 4061,951 4061,950 4062,949 4062,948 4062,947 4063,946 4063,945 4063,944 4063,943 4063,942 4063,940 4063,939 4063,937 4062,936 4061,934 4061,933 4060,932 4059,930 4058,929 4057,928 4055,926 4054,925 4050,922 4046,920 4016,902 4013,900 4011,898 4008,896 4006,894 4003,892 4001,889 4000,887 3998,885 3997,882 3995,880 3994,877 3994,874 3993,871 3992,868 3992,865 3992,862 3992,858 3993,855 3993,853 3994,851 3994,849 3995,846 3996,844 3997,842 3998,840 3999,839 4000,837 4002,835 4003,833 4005,832 4007,830 4009,829 4010,827 4013,826 4015,825 4017,823 4019,822 4024,821 4029,819 4035,818 4041,818 4047,818 4052,818 4057,818 4062,819 4067,820 4072,821 4076,822 4081,824 4085,826 Z"/>
        </g>
       </g>
      </g>
     </g>
    </g>
   </g>
  </g>
 </g>
</svg>